<?xml version="1.0" standalone="no"?>
<!DOCTYPE svg PUBLIC "-//W3C//DTD SVG 20010904//EN"
 "http://www.w3.org/TR/2001/REC-SVG-20010904/DTD/svg10.dtd">
<svg version="1.0" xmlns="http://www.w3.org/2000/svg"
 width="251.000000pt" height="108.000000pt" viewBox="0 0 251.000000 108.000000"
 preserveAspectRatio="xMidYMid meet">
<metadata>
Created by potrace 1.15, written by Peter Selinger 2001-2017
</metadata>
<g transform="translate(0.000000,108.000000) scale(0.100000,-0.100000)"
fill="#000000" stroke="none">
<path d="M2353 1055 c-17 -7 -43 -30 -57 -51 -23 -34 -100 -256 -140 -404 -11
-39 -32 -75 -73 -125 -67 -81 -75 -74 -44 38 12 40 21 85 21 100 0 23 -4 27
-29 27 -25 0 -37 -11 -82 -72 -29 -40 -54 -67 -56 -61 -2 6 3 38 11 71 22 82
21 84 -16 80 -24 -2 -36 -10 -46 -31 -11 -22 -18 -26 -35 -21 -12 4 -24 11
-26 17 -9 24 -43 47 -70 47 -65 0 -121 -83 -129 -192 -8 -108 12 -148 72 -148
60 0 119 83 133 187 3 25 11 43 18 43 9 0 11 -17 8 -63 -4 -51 -2 -66 11 -80
26 -26 51 -21 94 21 l39 37 -5 -65 c-3 -52 -1 -68 12 -79 24 -20 68 2 114 56
l38 44 -4 -119 c-4 -97 -1 -126 12 -155 50 -104 146 -19 277 248 74 151 92
205 66 205 -8 0 -44 -53 -87 -132 -89 -162 -148 -251 -163 -245 -20 7 -9 130
23 263 25 105 35 130 70 176 22 29 61 94 86 143 39 77 45 99 46 154 1 55 -2
67 -22 83 -26 21 -26 21 -67 3z"/>
<path d="M231 983 c-18 -15 -37 -80 -106 -376 -47 -197 -85 -367 -85 -378 0
-23 38 -41 60 -29 8 5 25 38 38 75 25 73 55 126 110 194 46 57 54 41 39 -78
-11 -92 -7 -119 21 -129 6 -2 31 25 56 59 l46 63 0 -45 c0 -59 26 -89 77 -89
30 0 45 9 92 56 30 30 57 51 59 45 5 -16 43 -13 63 5 16 14 16 11 12 -49 -4
-51 -2 -66 11 -80 47 -46 129 15 197 146 65 127 83 127 49 1 -24 -89 -36 -199
-26 -238 3 -14 15 -30 25 -36 38 -20 65 4 127 108 l60 100 -4 -67 c-4 -61 -2
-70 18 -84 12 -8 30 -12 41 -10 30 8 83 79 133 176 l44 86 23 -25 c12 -13 42
-35 65 -49 53 -31 59 -47 35 -93 -21 -39 -141 -164 -141 -146 0 16 73 126 98
148 54 47 7 62 -54 17 -102 -73 -150 -179 -108 -239 33 -48 99 -18 200 90 63
67 87 111 88 164 1 55 -18 87 -68 114 -101 56 -110 90 -39 159 44 43 48 44 51
24 5 -32 29 -29 35 4 15 81 -73 84 -144 6 -14 -15 -56 -90 -95 -166 -60 -120
-124 -221 -111 -177 2 8 28 121 57 250 l52 235 97 2 c53 0 116 7 141 15 37 11
46 18 48 41 5 37 -29 49 -83 30 -22 -8 -73 -17 -114 -20 l-74 -6 6 24 c3 13
11 53 19 88 12 59 11 64 -7 77 -41 30 -51 20 -75 -86 l-22 -100 -62 -1 c-70 0
-124 -16 -140 -41 -15 -25 7 -47 29 -28 8 7 47 15 85 18 58 4 70 2 70 -10 0
-9 -12 -67 -26 -129 -23 -104 -31 -122 -88 -209 -35 -52 -72 -111 -84 -130
-32 -52 -28 -21 19 173 33 135 39 170 29 182 -18 21 -40 19 -68 -7 -14 -13
-22 -17 -18 -10 10 17 -11 42 -35 42 -30 0 -54 -48 -56 -113 -1 -53 -6 -67
-47 -126 -25 -37 -57 -78 -71 -91 -23 -22 -25 -22 -25 -4 0 11 9 53 21 94 24
89 32 166 18 192 -25 46 -110 -5 -154 -92 -31 -60 -105 -151 -139 -169 -39
-21 -50 -5 -36 51 10 40 16 47 50 57 50 15 80 53 80 100 0 46 -14 61 -59 61
-32 0 -45 -9 -113 -82 l-77 -82 2 60 c2 71 -11 94 -56 94 -24 0 -42 -12 -84
-55 -29 -30 -53 -51 -53 -46 0 4 23 109 50 232 28 123 49 235 48 248 -4 32
-19 36 -47 14z"/>
</g>
</svg>
