<?xml version="1.0" encoding="utf-8"?>
<!-- Generator: Adobe Illustrator 16.0.0, SVG Export Plug-In . SVG Version: 6.00 Build 0)  -->
<!DOCTYPE svg PUBLIC "-//W3C//DTD SVG 1.1//EN" "http://www.w3.org/Graphics/SVG/1.1/DTD/svg11.dtd">
<svg version="1.1" id="Layer_1" xmlns="http://www.w3.org/2000/svg" xmlns:xlink="http://www.w3.org/1999/xlink" x="0px" y="0px"
	 width="188px" height="90px" viewBox="0 0 188 90" enable-background="new 0 0 188 90" xml:space="preserve">
<g>
	<g>
		<path fill="#4D4945" d="M187.296,54.463c-0.186-3.937-4.262-6.627-7.551-7.903c-4.065-1.579-8.519-1.981-12.849-1.863
			c-7.6,0.214-15.824,1.948-22.42,5.896c-0.119,0.07,0.046,0.374,0.167,0.323c0.27-0.113,0.545-0.217,0.822-0.32
			c0.712-0.271,1.437-0.515,2.169-0.751c1.631-0.516,3.282-0.954,4.953-1.326c4.389-0.976,8.89-1.46,13.388-1.415
			c4.386,0.05,8.987,0.538,13.022,2.362c2.137,0.965,5.189,2.787,5.165,5.487c0.112,3.584-3.693,5.669-6.76,6.648
			c-3.935,1.253-8.177,1.62-12.281,1.739c-5.434,0.159-10.759-0.477-15.98-1.694c-3.509-0.925-7.04-2.032-10.175-3.098
			c-3.556-1.303-7.072-2.742-10.582-4.195c1.125-0.708,4.039-2.95,6.688-6.571c2.903-3.968,5.918-10.599,6.827-12.662l9.227-21.061
			h-2.877l-7.273,17.207c-0.433,1.048-0.833,2.055-1.194,3.014c-0.36,0.96-0.687,1.853-0.977,2.688h-0.109
			c-0.252-0.835-0.57-1.749-0.95-2.742c-0.38-0.992-0.77-1.911-1.167-2.742l-7.762-17.424h-2.879l10.801,24.209
			c0.256,0.543,0.382,0.94,0.382,1.196c0,0.217-1.875,5.08-5.007,8.56c-2.755,3.068-5.276,4.642-6.32,5.259
			c-10.48-4.326-20.999-7.756-32.541-8.273c-3.545-0.164-7.086-0.035-10.583,0.617c-4.147,0.77-8.91,2.187-11.661,5.615
			c-2.047,2.554-2.332,5.386-0.518,8.147c2.414,3.674,7.318,5.099,11.393,5.871c7.656,1.448,15.54,0.801,23.028-1.218
			c0.903-0.212,1.799-0.439,2.686-0.684c6.3-1.735,14.847-5.544,18.766-7.864c0.086-0.05,0.182-0.11,0.289-0.173
			c0,0,3.787,1.359,5.485,1.977c1.678,0.646,3.352,1.291,5.041,1.911c3.976,1.464,8.002,2.786,12.123,3.783
			c1.033,0.253,2.067,0.481,3.106,0.702c6.219,1.404,12.576,2.156,18.973,1.785C177.689,65.113,188,62.853,187.296,54.463
			 M111.239,59.763c-7.261,2.203-14.853,3.499-22.455,2.894c-3.94-0.31-8.054-0.963-11.66-2.66
			c-2.052-0.967-4.509-2.769-3.999-5.326c0.675-3.53,5.605-5.427,8.569-6.209c3.329-0.877,6.801-1.248,10.241-1.227
			c11.099,0.049,21.562,3.466,31.882,7.076c-2.965,1.588-6.068,3.072-9.267,4.371C113.455,59.061,112.352,59.424,111.239,59.763"/>
		<rect x="0.599" y="3.527" fill="#4D4945" width="2.659" height="36.587"/>
		<path fill="#4D4945" d="M34.231,37.073c-0.291-0.866-0.436-1.646-0.436-2.336v-9.439c0-1.811-0.201-3.359-0.595-4.642
			c-0.399-1.285-0.906-2.371-1.521-3.257c-0.617-0.889-1.303-1.594-2.063-2.12c-0.758-0.523-1.523-0.921-2.282-1.195
			c-0.76-0.27-1.466-0.45-2.116-0.542c-0.652-0.09-1.177-0.137-1.573-0.137c-1.193,0-2.316,0.156-3.366,0.462
			c-1.05,0.31-2,0.735-2.85,1.274c-0.853,0.546-1.604,1.168-2.253,1.875c-0.651,0.705-1.178,1.457-1.576,2.252h-0.11l-0.214-5.212
			h-2.498c0.073,1.051,0.128,2.102,0.164,3.147c0.032,1.051,0.054,2.098,0.054,3.148v19.761h2.663V24.209
			c0-0.398,0.041-0.813,0.132-1.246c0.091-0.437,0.193-0.798,0.297-1.088c0.294-0.831,0.726-1.619,1.304-2.362
			c0.58-0.739,1.251-1.4,2.008-1.98c0.762-0.579,1.61-1.031,2.553-1.357c0.94-0.327,1.936-0.486,2.986-0.486
			c1.481,0,2.75,0.259,3.798,0.785c1.051,0.527,1.903,1.23,2.551,2.117c0.653,0.89,1.124,1.912,1.413,3.066
			c0.288,1.16,0.435,2.372,0.435,3.642v9.439c0,1.197,0.145,2.315,0.431,3.342c0.293,1.03,0.555,1.792,0.788,2.278
			c0.236,0.491,0.373,0.773,0.411,0.843l2.659-1.085c-0.036-0.073-0.17-0.38-0.407-0.923C34.778,38.649,34.518,37.943,34.231,37.073
			"/>
		<path fill="#4D4945" d="M52.902,0.624c-0.275-0.019-0.554-0.028-0.84-0.028c-2.465,0-4.527,0.78-6.19,2.333
			c-1.123,1.05-1.926,2.4-2.414,4.048c-0.491,1.645-0.735,3.587-0.735,5.835v1.247h-3.961l-0.542,2.116h4.504v28.553
			c0,0.763-0.083,1.52-0.24,2.279c-0.163,0.762-0.355,1.44-0.574,2.035c-0.216,0.599-0.487,1.257-0.812,1.982l2.655,0.543
			c0.324-0.759,0.6-1.465,0.817-2.117c0.216-0.651,0.406-1.392,0.571-2.223c0.158-0.835,0.242-1.687,0.242-2.554v-28.5h7.111
			l0.542-2.116h-7.654v-1.305c0-1.299,0.089-2.556,0.271-3.771c0.182-1.21,0.505-2.27,0.977-3.173
			c0.47-0.905,1.122-1.63,1.955-2.173c0.832-0.543,1.919-0.814,3.255-0.814c0.873,0,1.594,0.083,2.172,0.246
			c0.58,0.16,1.066,0.349,1.467,0.569l0.869-2.064c-0.582-0.361-1.466-0.648-2.662-0.867C53.436,0.669,53.171,0.643,52.902,0.624"/>
		<rect x="57.487" y="14.059" fill="#4D4945" width="2.66" height="26.056"/>
		<path fill="#4D4945" d="M70.544,40.115V24.209c0-0.398,0.042-0.813,0.133-1.247c0.089-0.436,0.188-0.796,0.298-1.089
			c0.29-0.828,0.726-1.619,1.307-2.362c0.579-0.738,1.244-1.398,2.007-1.979c0.76-0.579,1.608-1.031,2.55-1.357
			c0.938-0.327,1.936-0.488,2.985-0.488c1.484,0,2.749,0.262,3.8,0.785c1.05,0.528,1.9,1.231,2.552,2.12
			c0.651,0.89,1.123,1.908,1.41,3.066c0.295,1.158,0.438,2.372,0.438,3.637v9.442c0,1.196,0.146,2.312,0.432,3.341
			c0.29,1.029,0.551,1.793,0.788,2.279c0.234,0.491,0.37,0.771,0.407,0.843l2.663-1.085c-0.038-0.073-0.175-0.38-0.411-0.923
			c-0.235-0.543-0.497-1.249-0.786-2.119c-0.291-0.867-0.437-1.646-0.437-2.336v-9.442c0-1.808-0.196-3.357-0.593-4.639
			c-0.401-1.284-0.909-2.37-1.522-3.257c-0.612-0.888-1.3-1.594-2.061-2.121c-0.762-0.521-1.52-0.92-2.281-1.192
			c-0.761-0.271-1.467-0.451-2.12-0.543c-0.65-0.087-1.172-0.137-1.573-0.137c-1.192,0-2.314,0.156-3.363,0.463
			c-1.05,0.306-2.002,0.732-2.852,1.275c-0.85,0.543-1.6,1.168-2.252,1.873c-0.65,0.704-1.179,1.458-1.576,2.254h-0.108
			l-0.214-5.211h-2.497c0.072,1.049,0.125,2.099,0.164,3.145c0.032,1.051,0.052,2.101,0.052,3.151v19.76H70.544z"/>
		<rect x="99.611" y="14.06" fill="#4D4945" width="2.659" height="26.056"/>
		<path fill="#4D4945" d="M112.91,16.175v16.342c0,1.227,0.125,2.405,0.379,3.522c0.254,1.124,0.705,2.05,1.357,2.771
			c1.089,1.307,2.698,1.957,4.834,1.957c0.867,0,1.633-0.076,2.305-0.223c0.669-0.142,1.238-0.305,1.711-0.484l-0.324-2.062
			c-0.4,0.146-0.87,0.261-1.415,0.353c-0.542,0.09-1.212,0.138-2.008,0.138c-1.59,0-2.685-0.543-3.283-1.634
			c-0.6-1.083-0.897-2.424-0.897-4.014V16.175h7.708l0.543-2.116h-8.252V8.306l-2.66,0.816v4.938h-4.777l-0.542,2.116h3.366H112.91z
			"/>
	</g>
	<g>
		<g>
			<g>
				<path fill="#4D4945" d="M107.786,72.777v1.431c0.131-0.131,0.272-0.229,0.424-0.293c0.152-0.066,0.314-0.1,0.488-0.1
					c0.376,0,0.696,0.143,0.959,0.427c0.263,0.285,0.395,0.649,0.395,1.097c0,0.428-0.136,0.786-0.408,1.075
					c-0.272,0.288-0.594,0.434-0.967,0.434c-0.166,0-0.32-0.029-0.464-0.089c-0.143-0.061-0.285-0.157-0.426-0.29v0.303h-0.718
					v-3.994H107.786z M108.547,74.484c-0.229,0-0.417,0.077-0.568,0.232c-0.149,0.156-0.225,0.359-0.225,0.608
					c0,0.257,0.075,0.465,0.225,0.623c0.151,0.157,0.339,0.236,0.568,0.236c0.22,0,0.406-0.081,0.558-0.24
					c0.151-0.161,0.227-0.367,0.227-0.614c0-0.248-0.074-0.45-0.224-0.608C108.96,74.562,108.772,74.484,108.547,74.484z"/>
				<path fill="#4D4945" d="M110.331,73.891h0.739l0.749,1.809l0.827-1.809h0.741l-1.805,3.937h-0.748l0.593-1.269L110.331,73.891z"
					/>
			</g>
		</g>
		<g>
			<path fill="#4D4945" d="M133.063,72.604c-0.403,0.005-0.805,0-1.208,0.001c-0.468,0.003-0.936,0.008-1.403,0.012
				c0.001,0.278,0.005,0.557-0.001,0.835c-0.003,0.1,0.025,0.133,0.126,0.129c0.172-0.007,0.343,0.001,0.516,0.004
				c0.012,0,0.025,0,0.037,0c0.048,0.001,0.124-0.043,0.108,0.065l0,0c0,0.023,0,0.048-0.001,0.071
				c0.003,0.733,0.01,1.467,0.008,2.2c0,0.287,0.028,0.577-0.017,0.863c-0.024,0.04-0.062,0.027-0.095,0.027
				c-1.446,0-2.892,0-4.337,0.005c-0.135,0-0.136-0.065-0.136-0.165c0.003-0.664,0.001-1.327,0.003-1.991
				c0.001-0.288,0.007-0.578,0.011-0.869c-0.043-0.16-0.001-0.233,0.185-0.217c0.187,0.018,0.377,0.009,0.566,0.01
				c0.088-0.021,0.053-0.092,0.055-0.145c0.006-0.273,0.007-0.545,0.009-0.817c-0.028-0.006-0.056-0.017-0.084-0.017
				c-0.874,0-1.75,0.003-2.624-0.001c-0.096-0.001-0.104,0.039-0.104,0.114c0.002,0.254,0,0.509,0,0.764
				c0,0.039-0.009,0.084,0.044,0.103c0.224-0.001,0.448-0.001,0.672-0.001l0,0c0.139-0.033,0.123,0.053,0.106,0.137
				c0.003,0.043,0.008,0.083,0.008,0.124c0,2.504,0,5.01-0.003,7.514c0,0.055,0.079,0.188-0.091,0.164c0,0,0,0-0.001,0h0.001
				c-0.203,0.028-0.406,0.029-0.609,0l-0.006,0.008l-0.008-0.004c-0.089,0-0.117,0.044-0.115,0.132
				c0.005,0.253,0.001,0.507,0.001,0.761c0,0.039-0.01,0.085,0.042,0.104c0.89,0,1.779,0,2.669,0c0.092,0,0.095-0.059,0.093-0.131
				c-0.004-0.243-0.007-0.485,0-0.729c0.004-0.106-0.033-0.131-0.133-0.127c-0.171,0.008-0.344-0.008-0.514,0.006
				c-0.142,0.011-0.177-0.038-0.176-0.178c0.006-1.04,0.003-2.083,0.003-3.125c0-0.118,0.007-0.236,0.01-0.354l0,0
				c-0.006-0.137,0.101-0.074,0.152-0.075c0.6-0.006,1.198-0.003,1.796-0.003c0.807,0,1.613-0.001,2.419,0
				c0.235,0.002,0.216-0.037,0.198,0.223c0,0.012,0,0.023,0,0.034c0.003,0.517,0.008,1.03,0.009,1.546
				c0.001,0.586,0.002,1.174-0.002,1.76c0,0.056,0.048,0.155-0.079,0.154c-0.188,0.032-0.378,0.004-0.567,0.016
				c-0.054,0.003-0.123-0.027-0.152,0.053c0,0.271,0,0.545,0,0.817c0.015,0.036-0.011,0.091,0.042,0.112
				c0.889,0,1.779,0,2.668,0.001c0.044-0.014,0.043-0.051,0.043-0.086c0-0.27,0-0.538,0.001-0.809c0-0.041,0.001-0.083-0.044-0.106
				c-0.217,0.032-0.438,0.01-0.656,0.014c-0.081,0.003-0.103-0.036-0.097-0.108c0.002-0.023,0-0.047,0-0.071
				c0-2.504,0-5.009,0-7.513c0-0.041,0.005-0.081,0.008-0.124c-0.024-0.097-0.012-0.152,0.114-0.146
				c0.183,0.011,0.367-0.004,0.55,0.006c0.104,0.004,0.127-0.032,0.125-0.131c-0.007-0.236-0.009-0.474,0.001-0.71
				C133.208,72.626,133.168,72.603,133.063,72.604z"/>
			<path fill="#4D4945" d="M159.572,73.638c-1.352-1.088-2.906-1.496-4.621-1.307c-1.691,0.188-3.104,0.905-4.138,2.281
				c-0.884,1.178-1.208,2.508-0.848,3.942c0.487,1.941,1.798,3.142,3.633,3.823c0.384,0.141,0.789,0.198,1.187,0.279
				c0.056,0.004,0.114,0.008,0.171,0.012c0.064-0.008,0.128-0.007,0.189,0.021c0.339,0.001,0.679,0.001,1.018,0.003
				c0.101-0.046,0.21-0.024,0.314-0.038c1.426-0.183,2.646-0.78,3.644-1.817c1.041-1.079,1.503-2.369,1.342-3.857
				C161.314,75.604,160.642,74.5,159.572,73.638z M160.255,77.854c-0.111,1.158-0.652,2.084-1.534,2.822
				c-0.68,0.567-1.46,0.906-2.341,1.015l0,0c-0.635,0.09-1.267,0.061-1.892-0.08c-1.692-0.458-2.842-1.48-3.322-3.195
				c-0.044-0.158-0.057-0.326-0.084-0.489c-0.034-0.358-0.035-0.715,0.035-1.069c0.277-1.665,1.705-3.137,3.385-3.49
				c0.208-0.045,0.417-0.086,0.63-0.098c0.321-0.029,0.643-0.025,0.964-0.002c1.944,0.128,3.743,1.528,4.124,3.595
				c0.02,0.104,0.024,0.211,0.035,0.315C160.273,77.402,160.275,77.627,160.255,77.854z"/>
			<path fill="#4D4945" d="M149.936,81.541c-0.213-0.002-0.427-0.006-0.64,0.001c-0.101,0.003-0.16-0.036-0.217-0.117
				c-0.721-1.021-1.446-2.038-2.169-3.058c-0.098-0.139-0.192-0.278-0.296-0.429c0.635-0.103,1.203-0.308,1.642-0.769
				c0.678-0.712,0.899-1.569,0.722-2.524c-0.158-0.849-0.637-1.462-1.446-1.798c-0.336-0.14-0.696-0.184-1.053-0.234
				c-0.072-0.001-0.144-0.004-0.215-0.005l0,0l0,0c-1.027-0.002-2.053-0.003-3.08-0.002c-0.088,0-0.178-0.015-0.264,0.017
				c-0.002,0.306-0.003,0.614-0.005,0.921c0.025,0.013,0.05,0.027,0.074,0.041c0.237-0.008,0.475-0.016,0.712,0.006
				c0.053,0.042,0.025,0.098,0.025,0.148c0.002,2.543,0.002,5.087,0.002,7.63c0,0.012,0,0.024,0.001,0.034
				c0.019,0.116-0.042,0.142-0.144,0.139c-0.171-0.005-0.343-0.003-0.516-0.003c-0.057,0-0.121-0.019-0.154,0.055
				c0,0.283,0,0.568,0,0.852c0.007,0.043,0.027,0.074,0.075,0.079c0.877,0,1.755,0,2.632,0l0,0c0.061-0.044,0.035-0.106,0.035-0.161
				c0.002-0.27,0.001-0.539,0.001-0.808c-0.205-0.043-0.417,0.017-0.622-0.032l0,0l0,0c-0.018,0.001-0.036,0.003-0.054,0.003
				c-0.121,0.041-0.106-0.046-0.106-0.116c0-0.396,0-0.793,0-1.19c0-0.687,0-1.372,0.001-2.059c0-0.066-0.039-0.176,0.105-0.134
				c0.202-0.05,0.341-0.004,0.471,0.188c0.501,0.745,1.028,1.475,1.543,2.213c0.46,0.659,0.917,1.321,1.376,1.982
				c0.057,0.082,0.13,0.11,0.236,0.11c0.464-0.006,0.929,0.001,1.395,0.003c0.011-0.013,0.032-0.024,0.032-0.037
				c0.003-0.29,0.003-0.581,0.007-0.871C150.044,81.531,149.989,81.541,149.936,81.541z M146.273,77.144
				c-0.058,0.035-0.121,0.037-0.187,0.027c-0.08,0.004-0.159,0.006-0.238,0.01c-0.304,0.05-0.61,0.013-0.915,0.024
				c-0.051,0.003-0.06-0.024-0.053-0.064c0-0.048,0.001-0.096,0.001-0.143c0-1.091,0-2.184,0-3.276c0-0.023,0-0.048,0-0.07
				c-0.019-0.077,0.033-0.073,0.081-0.073c0.375,0.004,0.75,0.007,1.126,0.011c0.05-0.008,0.1-0.012,0.144,0.02l0,0
				c0.058,0.004,0.117,0.01,0.174,0.014c1.005,0.122,1.556,0.87,1.444,1.931c-0.088,0.835-0.509,1.332-1.239,1.53
				C146.502,77.111,146.387,77.123,146.273,77.144z"/>
			<path fill="#4D4945" d="M169.099,81.454c-0.131,0.004-0.229-0.026-0.289-0.146c-0.019-0.015-0.039-0.027-0.054-0.044
				c-1.229-1.318-2.457-2.64-3.689-3.954c-0.09-0.096-0.038-0.133,0.024-0.191c0.736-0.725,1.47-1.449,2.208-2.171
				c0.381-0.374,0.763-0.748,1.153-1.109c0.166-0.156,0.368-0.26,0.607-0.253c0.166-0.018,0.331-0.018,0.497-0.004
				c0.047-0.008,0.093-0.019,0.108-0.073c-0.002-0.294-0.004-0.588-0.005-0.881c-0.053-0.007-0.105-0.018-0.158-0.018
				c-0.904-0.001-1.808,0.002-2.712-0.004c-0.122,0-0.163,0.026-0.157,0.156c0.013,0.27,0.009,0.541,0.013,0.812l0,0h0.017
				l0.014,0.008c0.201-0.017,0.402-0.011,0.602,0.004l0,0c0.145,0.036,0.154,0.068,0.022,0.2c-0.404,0.407-0.813,0.809-1.221,1.213
				c-0.646,0.643-1.402,1.386-2.047,2.027c-0.01,0.058-0.029-0.403-0.03-0.557c-0.002-0.848,0-1.696,0-2.544
				c0-0.024,0-0.047-0.001-0.072c-0.022-0.31-0.022-0.31,0.294-0.31c0.585-0.002,0.484,0.042,0.491-0.494
				c0.004-0.396,0-0.396-0.389-0.396c-0.688,0-1.376,0.003-2.064-0.002c-0.136-0.002-0.194,0.034-0.185,0.179
				c0.012,0.194,0.005,0.392,0.003,0.587c-0.002,0.092,0.034,0.132,0.125,0.127c0.166-0.011,0.33,0.016,0.497-0.021
				c0.181-0.04,0.233,0.007,0.233,0.187c0,2.468,0,4.934-0.001,7.403c0,0.107-0.008,0.216-0.021,0.323
				c-0.009,0.076-0.056,0.018-0.086,0.015c-0.261,0-0.523,0-0.784,0.001l0,0l0,0c-0.001,0.319-0.002,0.64-0.004,0.96
				c0.88,0.003,1.76,0.007,2.642,0.009c0.022-0.005,0.045-0.009,0.068-0.012c0-0.279-0.004-0.558,0.002-0.837
				c0.002-0.093-0.026-0.125-0.12-0.121c-0.19,0.005-0.38,0.001-0.57,0.003c-0.063,0-0.108,0-0.108-0.092
				c0.005-1.098,0.007-2.194,0.009-3.292c-0.003-0.011-0.008-0.019-0.01-0.029c0-0.004,0.007-0.008,0.01-0.013
				c-0.002-0.061-0.006-0.119-0.011-0.232c0.089,0.106,0.143,0.171,0.196,0.235c0.042,0.039,0.089,0.076,0.128,0.12
				c1.288,1.39,2.575,2.782,3.86,4.174c0.056,0.062,0.109,0.092,0.197,0.091c0.438-0.004,0.876-0.004,1.315,0
				c0.099,0.003,0.132-0.022,0.129-0.127c-0.008-0.277-0.005-0.556-0.006-0.834C169.593,81.454,169.345,81.444,169.099,81.454z"/>
			<path fill="#4D4945" d="M176.893,79.737c-0.195,0.004-0.39,0.003-0.585,0.006c-0.046,0-0.078-0.004-0.084,0.072
				c-0.051,0.544-0.161,1.079-0.244,1.62c-0.018,0.113-0.065,0.119-0.152,0.092c-0.466,0.004-0.934,0.014-1.4,0.011
				c-0.485-0.001-0.969,0.019-1.454-0.011l0,0c-0.039-0.009-0.036-0.04-0.036-0.069c0.003-1.178,0.005-2.355,0.007-3.532
				c0-0.013,0-0.024,0-0.038c0.009-0.129,0.11-0.063,0.162-0.064c0.725-0.004,1.448-0.007,2.172,0
				c0.139,0.003,0.184-0.032,0.175-0.172c-0.013-0.194-0.012-0.393-0.001-0.587c0.007-0.133-0.032-0.172-0.168-0.17
				c-0.73,0.008-1.46,0.004-2.189,0.002c-0.073,0-0.187,0.04-0.149-0.112c0-0.996,0-1.993,0-2.989l0,0l0,0l0,0l0,0
				c0-0.025,0-0.049,0-0.074c-0.024-0.1-0.006-0.146,0.117-0.146c0.925,0.006,1.851,0.005,2.776,0.002
				c0.095-0.002,0.133,0.02,0.146,0.119c0.01,0.076,0.024,0.15,0.026,0.228l0,0c0.009,0.034,0.024,0.065,0.03,0.1
				c0.064,0.368,0.129,0.733,0.188,1.103c0.017,0.11,0.06,0.161,0.18,0.15c0.13-0.011,0.262-0.013,0.391,0
				c0.142,0.013,0.179-0.036,0.178-0.175c-0.006-0.771-0.006-1.543,0-2.316c0.002-0.149-0.04-0.183-0.186-0.183
				c-1.875,0.004-3.751,0.003-5.626,0.003c-0.029,0-0.06,0.004-0.089,0c-0.079-0.009-0.103,0.026-0.102,0.103
				c0.005,0.29,0.007,0.58,0.011,0.872c0.208,0,0.415,0.008,0.622-0.005c0.136-0.006,0.178,0.027,0.176,0.172
				c-0.007,0.913-0.003,1.824-0.003,2.738c0,1.622,0,3.248-0.004,4.872c0,0.065,0.065,0.202-0.109,0.17
				c-0.193,0.029-0.388,0.011-0.581,0.011c-0.086,0.001-0.114,0.029-0.112,0.112c0.007,0.288,0.008,0.579,0.012,0.868
				c1.992,0.001,3.984,0.001,5.975,0.001c0.004-0.899,0.009-1.799,0.014-2.698C176.975,79.763,176.955,79.736,176.893,79.737z"/>
			<path fill="#4D4945" d="M135.264,72.605c-0.083,0-0.115,0.014-0.113,0.104c0.005,0.256,0.002,0.511,0.001,0.766
				c0,0.056-0.004,0.109,0.074,0.11c0.239,0.006,0.481-0.044,0.718,0.027c0.032,0.035,0.017,0.079,0.017,0.118
				c0,2.538,0,5.074,0,7.612c0,0.029-0.002,0.059,0,0.089c0.009,0.085-0.032,0.112-0.114,0.11c-0.196-0.004-0.392,0.002-0.587-0.004
				c-0.083-0.001-0.112,0.021-0.11,0.11c0.007,0.254,0.003,0.51,0.001,0.764c0,0.057-0.002,0.109,0.075,0.112
				c0.391-0.003,0.783-0.006,1.174-0.006c1.489-0.001,2.979-0.001,4.469,0c0.065,0,0.13,0.003,0.195,0.006
				c0.113,0.001,0.092-0.08,0.092-0.148c-0.001-0.718,0.002-1.436-0.002-2.152c-0.001-0.158,0.069-0.367-0.031-0.459
				c-0.086-0.079-0.293-0.024-0.447-0.027c-0.255-0.001-0.248,0.002-0.29,0.264c-0.078,0.495-0.166,0.989-0.25,1.485l0,0l0,0
				c0.003,0.062-0.039,0.058-0.083,0.058c-0.963,0-1.928,0-2.891,0c-0.014,0-0.027-0.017-0.042-0.024l0,0
				c-0.004-0.088-0.011-0.177-0.011-0.265c0-1.07,0-2.14,0-3.21c0-0.063,0.006-0.129,0.009-0.192
				c0.021-0.059,0.071-0.031,0.105-0.031c0.792-0.001,1.585,0,2.378,0.002c0.011-0.006,0.022-0.01,0.033-0.015
				c-0.001-0.301-0.001-0.601-0.002-0.901l0,0l0,0c-0.64-0.002-1.279-0.006-1.918-0.011c-0.142-0.001-0.284-0.005-0.426-0.008
				c-0.025,0-0.05,0-0.075,0l0,0l0,0c-0.141,0.039-0.105-0.067-0.105-0.134c-0.001-0.646-0.001-1.29-0.001-1.934
				c0-0.374,0-0.747,0-1.12c-0.001-0.075-0.007-0.149,0.108-0.116c0.012,0,0.024,0,0.037,0c0.925-0.003,1.85-0.003,2.773-0.008
				c0.08,0,0.122,0.018,0.126,0.101c0.004,0.07,0.017,0.142,0.025,0.212l0,0c0.068,0.224,0.088,0.458,0.129,0.688
				c0.018,0.117,0.037,0.234,0.055,0.351c0.025,0.021,0.022,0.049,0.017,0.075c0.059,0.271,0.059,0.276,0.342,0.271
				c0.147-0.003,0.296,0.025,0.44-0.022l0,0c0-0.877,0.001-1.751,0.001-2.628c-0.045-0.006-0.091-0.017-0.137-0.017
				C139.106,72.605,137.185,72.606,135.264,72.605z"/>
			<path fill="#4D4945" d="M184.639,72.606c-1.92-0.001-3.84-0.001-5.76,0c-0.049,0-0.111-0.02-0.138,0.049
				c0.003,0.306,0.006,0.611,0.008,0.916c0.022,0.004,0.045,0.01,0.069,0.014c0.236,0.001,0.474,0.001,0.71,0.001
				c0.073,0.04,0.034,0.106,0.034,0.158c0.002,2.532,0.002,5.064,0.002,7.597c0,0.023-0.002,0.047,0.001,0.069
				c0.015,0.1-0.023,0.136-0.126,0.134c-0.189-0.009-0.38,0.002-0.569-0.005c-0.091-0.001-0.125,0.024-0.123,0.119
				c0.006,0.25,0.001,0.499,0.002,0.747c0,0.053-0.012,0.112,0.067,0.119c0.261-0.003,0.521-0.006,0.782-0.006
				c1.634-0.001,3.267-0.001,4.9,0c0.065,0,0.13,0.004,0.195,0.006c0.027-0.01,0.062-0.007,0.074-0.043
				c-0.003-0.854-0.008-1.707-0.003-2.562c0-0.148-0.037-0.195-0.185-0.185c-0.183,0.015-0.368,0.008-0.551,0.012l0,0
				c-0.095,0.58-0.191,1.161-0.286,1.742c-0.022,0.091-0.098,0.053-0.147,0.053c-0.882,0.003-1.766,0-2.647,0.004
				c-0.051,0.004-0.103,0.01-0.143-0.001c-0.088-0.007-0.102-0.051-0.102-0.143c0.003-1.145,0.004-2.289-0.001-3.435
				c0-0.133,0.047-0.152,0.164-0.151c0.789,0.003,1.578-0.001,2.366-0.004c0-0.305-0.001-0.607-0.002-0.913l0,0
				c-0.769-0.001-1.541-0.003-2.312-0.003c-0.059,0-0.117-0.005-0.176-0.009c-0.042-0.008-0.034-0.04-0.034-0.068
				c0.001-1.008,0.004-2.017,0.005-3.027c-0.035-0.156,0.004-0.221,0.189-0.218c0.883,0.011,1.766,0.003,2.648,0.006
				c0.062,0,0.13-0.028,0.185,0.023c0.079,0.444,0.159,0.888,0.238,1.33c0.005,0.044,0.009,0.087,0.013,0.132
				c0.025,0.021,0.028,0.051,0.023,0.08c0.006,0.092,0.043,0.135,0.146,0.132c0.188-0.005,0.378,0.003,0.567,0.007
				c0.015-0.022,0.03-0.045,0.046-0.068c-0.002-0.864-0.005-1.729-0.007-2.595C184.721,72.617,184.68,72.606,184.639,72.606z"/>
			<path fill="#4D4945" d="M122.689,79.733c-0.171-0.016-0.211,0.057-0.214,0.205c-0.009,0.466-0.222,0.821-0.59,1.101
				c-0.46,0.348-0.981,0.509-1.548,0.547c-0.213,0.016-0.426,0.015-0.64-0.001c-0.169-0.021-0.342-0.03-0.509-0.065
				c-1.311-0.269-2.28-0.987-2.842-2.21c-0.385-0.841-0.429-1.731-0.278-2.628c0.2-1.184,0.787-2.123,1.831-2.745
				c0.775-0.461,1.622-0.571,2.503-0.453c0.527,0.069,1.007,0.261,1.406,0.625c0.389,0.356,0.587,0.812,0.666,1.322
				c0.02,0.133,0.066,0.182,0.202,0.171c0.153-0.013,0.309-0.01,0.462-0.002c0.091,0.002,0.124-0.022,0.124-0.117
				c-0.003-0.921-0.003-1.841,0-2.761c0-0.098-0.034-0.119-0.123-0.117c-0.166,0.005-0.333,0.011-0.499-0.002
				c-0.122-0.009-0.152,0.046-0.164,0.15c-0.02,0.182-0.049,0.363-0.076,0.545c-0.005,0.033,0.01,0.078-0.029,0.096
				c-0.049,0.022-0.071-0.028-0.101-0.054c-0.2-0.169-0.411-0.321-0.646-0.438c-0.785-0.396-1.618-0.506-2.485-0.433
				c-1.375,0.117-2.476,0.731-3.288,1.837c-1.015,1.386-1.213,2.949-0.863,4.586c0.474,2.22,2.365,3.571,4.497,3.763
				c1.431,0.128,2.686-0.316,3.777-1.241c0-0.058,0.001-0.114,0.002-0.175c0-0.012,0-0.025,0-0.038
				c-0.003-0.485-0.005-0.973-0.007-1.457C123.068,79.741,122.877,79.752,122.689,79.733z"/>
			<path fill="#4D4945" d="M186.119,72.441c-0.457-0.002-0.822,0.357-0.832,0.818c-0.009,0.454,0.353,0.825,0.811,0.831
				c0.455,0.004,0.832-0.362,0.837-0.812C186.94,72.832,186.563,72.445,186.119,72.441z M186.113,73.894
				c-0.33,0.007-0.627-0.283-0.631-0.617c-0.004-0.337,0.28-0.623,0.62-0.625c0.343-0.003,0.622,0.27,0.624,0.613
				C186.728,73.606,186.455,73.888,186.113,73.894z"/>
			<path fill="#4D4945" d="M186.326,72.895c-0.181-0.021-0.388-0.014-0.508-0.012c0,0-0.009,0.182-0.005,0.299
				c0.001,0.022-0.001,0.048-0.001,0.072c0,0.112,0,0.229-0.003,0.342c-0.002,0.071,0.027,0.1,0.093,0.093
				c0.049-0.004,0.096,0.018,0.112-0.063c0.014-0.073-0.056-0.194,0.051-0.208c0.095-0.012,0.078,0.127,0.125,0.191
				c0.009,0.014,0.008,0.038,0.02,0.048c0.062,0.057,0.138,0.047,0.199,0.018c0.063-0.029,0.013-0.088-0.008-0.122
				c-0.133-0.202-0.1-0.186-0.019-0.274C186.489,73.158,186.478,72.912,186.326,72.895z M186.11,73.222
				c-0.052,0.004-0.108,0.012-0.104-0.084c0.002-0.075,0.036-0.088,0.098-0.086c0.066,0.002,0.144,0,0.145,0.087
				C186.249,73.214,186.183,73.227,186.11,73.222z"/>
		</g>
		<g>
			<path fill="#4D4945" d="M130.104,88.764c-0.133,0.07-0.291,0.106-0.471,0.106c-0.171,0-0.321-0.033-0.445-0.096
				c-0.128-0.066-0.223-0.157-0.281-0.271c-0.056-0.109-0.083-0.281-0.083-0.527v-2.514h-0.717v2.309
				c0,0.463,0.052,0.792,0.155,0.979c0.102,0.184,0.275,0.339,0.517,0.463c0.245,0.126,0.539,0.191,0.874,0.191
				c0.255,0,0.481-0.034,0.672-0.101c0.187-0.065,0.355-0.167,0.501-0.303c0.142-0.136,0.24-0.274,0.288-0.416
				c0.051-0.146,0.077-0.419,0.077-0.813v-2.309h-0.717v2.418c0,0.29-0.026,0.484-0.078,0.598
				C130.341,88.595,130.243,88.69,130.104,88.764z"/>
			<polygon fill="#4D4945" points="134.159,85.462 134.159,89.388 134.873,89.388 134.873,86.844 137.315,89.388 137.581,89.388 
				137.581,85.462 136.867,85.462 136.867,87.968 134.424,85.462 			"/>
			<rect x="140.67" y="85.462" fill="#4D4945" width="0.706" height="3.918"/>
			<polygon fill="#4D4945" points="145.236,87.971 146.552,87.971 146.552,87.264 145.236,87.264 145.236,86.167 146.926,86.167 
				146.926,85.462 144.53,85.462 144.53,89.38 145.236,89.38 			"/>
			<path fill="#4D4945" d="M152.861,86.052c-0.374-0.376-0.829-0.567-1.349-0.567c-0.344,0-0.669,0.088-0.968,0.26
				c-0.297,0.173-0.535,0.41-0.705,0.705c-0.171,0.297-0.257,0.623-0.257,0.976c0,0.525,0.186,0.984,0.55,1.366
				c0.366,0.382,0.831,0.575,1.383,0.575c0.528,0,0.982-0.188,1.352-0.561c0.37-0.372,0.557-0.833,0.557-1.369
				C153.425,86.896,153.235,86.43,152.861,86.052z M152.327,88.282c-0.225,0.231-0.491,0.344-0.811,0.344
				c-0.279,0-0.532-0.09-0.747-0.266c-0.282-0.229-0.419-0.53-0.419-0.924c0-0.354,0.109-0.637,0.333-0.866
				c0.224-0.227,0.492-0.338,0.821-0.338c0.326,0,0.594,0.114,0.821,0.348c0.227,0.234,0.338,0.512,0.338,0.853
				C152.663,87.772,152.553,88.051,152.327,88.282z"/>
			<path fill="#4D4945" d="M158.43,87.631c0.182-0.076,0.309-0.181,0.438-0.359c0.12-0.169,0.18-0.383,0.18-0.637
				c0-0.26-0.061-0.516-0.166-0.682c-0.107-0.173-0.252-0.299-0.43-0.374c-0.184-0.077-0.507-0.117-0.959-0.117h-1.106v3.918h0.706
				v-1.64h0.511l0.917,1.64h0.804l-1.008-1.701L158.43,87.631z M157.698,87.167h-0.605v-1.082h0.575
				c0.233,0,0.385,0.015,0.479,0.049c0.102,0.039,0.184,0.103,0.244,0.187c0.06,0.088,0.091,0.19,0.091,0.304
				c0,0.191-0.064,0.334-0.191,0.422C158.172,87.127,157.979,87.167,157.698,87.167z"/>
			<polygon fill="#4D4945" points="165.256,85.462 164.073,88.335 162.9,85.462 162.508,85.462 161.567,89.373 162.271,89.369 
				162.79,86.916 163.802,89.369 164.339,89.369 165.362,86.916 165.869,89.369 166.575,89.369 165.647,85.462 			"/>
			<path fill="#4D4945" d="M171.402,88.336c0-0.154-0.034-0.296-0.101-0.423c-0.068-0.13-0.185-0.27-0.349-0.414
				c-0.048-0.041-0.186-0.151-0.578-0.437c-0.347-0.255-0.55-0.416-0.621-0.496c-0.059-0.067-0.087-0.14-0.087-0.214
				c0-0.08,0.041-0.153,0.124-0.212c0.079-0.058,0.179-0.086,0.298-0.086c0.229,0,0.455,0.126,0.671,0.376l0.54-0.414
				c-0.211-0.206-0.411-0.354-0.591-0.434c-0.191-0.085-0.396-0.128-0.607-0.128c-0.327,0-0.607,0.092-0.831,0.273
				c-0.219,0.18-0.33,0.396-0.33,0.645c0,0.171,0.067,0.347,0.199,0.522c0.138,0.182,0.438,0.437,0.917,0.775
				c0.258,0.184,0.421,0.316,0.497,0.406c0.082,0.095,0.123,0.192,0.123,0.29c0,0.11-0.056,0.207-0.167,0.29
				c-0.106,0.079-0.237,0.118-0.391,0.118c-0.282,0-0.533-0.164-0.748-0.491l-0.618,0.326c0.156,0.256,0.341,0.446,0.553,0.565
				c0.224,0.129,0.492,0.194,0.794,0.194c0.387,0,0.705-0.099,0.944-0.295C171.282,88.882,171.402,88.633,171.402,88.336z"/>
		</g>
	</g>
</g>
</svg>
