<?xml version="1.0" encoding="utf-8"?>
<!-- Generator: Adobe Illustrator 22.0.1, SVG Export Plug-In . SVG Version: 6.00 Build 0)  -->
<svg version="1.1" id="Layer_1" xmlns="http://www.w3.org/2000/svg" xmlns:xlink="http://www.w3.org/1999/xlink" x="0px" y="0px" 
	width="26px" height="30px" viewBox="0 0 26 30" style="enable-background:new 0 0 26 30;" xml:space="preserve">
<style type="text/css">
	.st0{display:none;}
	.st1{display:inline;fill:none;stroke:#3D3935;stroke-width:1.6;}
	.st2{display:none;fill:none;stroke:#3D3935;stroke-width:1.6;}
	.st3{fill:none;stroke:#3D3935;stroke-width:1.6;}
</style>
<g class="st0">
	<path class="st1" d="M7.5,11.1V5.7c0,0,0-4.8,5.4-4.6c1.4,0.1,4.4,0.6,4.6,4.6V11"/>
	<path class="st1" d="M1.8,7.5h20.7L24,26.1c0,0,0.4,2.9-1.4,2.9h-20c0,0-1.6,0.4-1.4-2.1S1.8,7.5,1.8,7.5z"/>
</g>
<circle class="st2" cx="10.6" cy="13.9" r="9.7"/>
<path class="st3" d="M13.1,24.9c0,0-8.2-1.8-11.5-9.9c-2.9-7,7.7-14,11.6-4.9c0,0,1.8-5,7-4.2S30.3,15.8,13.1,24.9z"/>
</svg>
